<svg xmlns="http://www.w3.org/2000/svg" viewBox="0 0 512 512">
  <rect width="512" height="512" rx="112" fill="#2D5A3D"/>
  <g fill="#F4B942">
    <path d="M 198,254 C 172,232 140,202 88,160 C 96,174 112,192 132,210 C 158,232 182,256 202,270 Z"/>
    <path d="M 316,246 C 344,222 384,190 440,150 C 430,166 414,184 396,200 C 368,224 340,250 318,268 Z"/>
    <ellipse cx="256" cy="258" rx="82" ry="21" transform="rotate(-7 256 258)"/>
    <path d="M 186,252 C 180,238 176,222 180,208 C 182,198 188,193 196,198 C 192,204 188,216 190,230 C 192,244 198,254 202,260 Z"/>
    <ellipse cx="172" cy="198" rx="27" ry="18" transform="rotate(-20 172 198)"/>
    <polygon points="72,208 170,193 170,212"/>
    <polygon points="306,266 313,269 344,390 337,393"/>
    <polygon points="324,261 331,264 363,385 356,388"/>
  </g>
</svg>
